<?xml version="1.0" encoding="utf-8"?>
<!-- Generator: Adobe Illustrator 16.0.0, SVG Export Plug-In . SVG Version: 6.00 Build 0)  -->
<!DOCTYPE svg PUBLIC "-//W3C//DTD SVG 1.1//EN" "http://www.w3.org/Graphics/SVG/1.1/DTD/svg11.dtd">
<svg version="1.1" id="图层_1" xmlns="http://www.w3.org/2000/svg" xmlns:xlink="http://www.w3.org/1999/xlink" x="0px" y="0px"
	 width="960px" height="250px" viewBox="0 0 960 250" enable-background="new 0 0 960 250" xml:space="preserve">
<g>
	<g>
		<path fill="none" stroke="#F15FFF" stroke-miterlimit="10" d="M26.529,150.92c0.947,0.317,1.9,0.622,2.857,0.914"/>
		<path fill="none" stroke="#F15FFF" stroke-miterlimit="10" stroke-dasharray="6.1426,6.1426" d="M35.305,153.477
			c12.297,3.091,25.223,4.449,37.849,5.308c20.94,1.423,42.034,1.052,62.954-0.451c18.427-1.323,36.783-3.573,54.923-6.795"/>
		<path fill="none" stroke="#F15FFF" stroke-miterlimit="10" d="M194.054,150.991c0.983-0.181,1.966-0.364,2.949-0.551"/>
	</g>
</g>
<g>
	<g>
		<path fill="none" stroke="#F15FFF" stroke-miterlimit="10" d="M239.667,134.333c0.789-0.341,1.688-0.791,2.681-1.338"/>
		<path fill="none" stroke="#F15FFF" stroke-miterlimit="10" stroke-dasharray="6.1956,6.1956" d="M247.63,129.761
			c13.847-9.15,35.924-28.054,42.172-40.455"/>
		<path fill="none" stroke="#F15FFF" stroke-miterlimit="10" d="M290.992,86.445c0.332-1.055,0.508-2.041,0.508-2.945"/>
	</g>
</g>
<path fill="none" stroke="#F15FFF" stroke-miterlimit="10" stroke-dasharray="6" d="M286,29c-5-9-11.863-14.5-28-14.5"/>
<path fill="none" stroke="#F15FFF" stroke-miterlimit="10" stroke-dasharray="6" d="M256.5,15.5C241.822,15.5,227,37.377,227,59"/>
<path fill="none" stroke="#F15FFF" stroke-miterlimit="10" stroke-dasharray="6" d="M195,50.666c11.106,0,33,7.346,33,10.334"/>
<path fill="none" stroke="#F15FFF" stroke-miterlimit="10" stroke-dasharray="6" d="M181.5,87c0,42.008,106.896,76,239,76"/>
<path fill="none" stroke="#F15FFF" stroke-miterlimit="10" stroke-dasharray="6" d="M420.5,163c16.5,0,29.5-9,42.5-18
	c24-15,44-34,54.568-60.212"/>
<path fill="none" stroke="#F15FFF" stroke-miterlimit="10" stroke-dasharray="6" d="M518.332,85c17-20.666,42.81-33.5,59.668-33.5"
	/>
<path fill="none" stroke="#F15FFF" stroke-miterlimit="10" stroke-dasharray="6" d="M578,51.5c21.893,0,44,3.771,44,7.5"/>
<path fill="none" stroke="#F15FFF" stroke-miterlimit="10" stroke-dasharray="6" d="M622,59c15.283,0,138.5,59.162,138.5,66.5"/>
<path fill="none" stroke="#F15FFF" stroke-miterlimit="10" stroke-dasharray="6" d="M760.5,125.5c0,2.703,55.604,24.5,62.5,24.5"/>
<path fill="none" stroke="#F15FFF" stroke-miterlimit="10" stroke-dasharray="6" d="M823,150c39.667,2.333,43,3.001,65-2.333"/>
<path fill="none" stroke="#F15FFF" stroke-miterlimit="10" stroke-dasharray="6" d="M878.667,149.667
	c20.627,0,70.865-32.676,64-20.667"/>
<path fill="none" stroke="#F15FFF" stroke-miterlimit="10" stroke-dasharray="6" d="M197.002,150.44
	c10.916,0,39.498-11.896,39.498-16.44"/>
<path fill="none" stroke="#F15FFF" stroke-miterlimit="10" stroke-dasharray="6" d="M181,83.5c-2.5,0-2.5,0-2.5-20"/>
<path fill="none" stroke="#F15FFF" stroke-miterlimit="10" stroke-dasharray="6" d="M179,60c0-5.977,5.23-10,13-10"/>
<path fill="none" stroke="#F15FFF" stroke-miterlimit="10" stroke-dasharray="6" d="M287,32.334
	c8.166,15.604,12.667,30.666,5.667,52.333"/>
</svg>
